<svg width="115" height="23" viewBox="0 0 115 23" fill="none" xmlns="http://www.w3.org/2000/svg">
<path fill-rule="evenodd" clip-rule="evenodd" d="M12.9045 7.94126C13.0112 8.22361 13.0112 8.54126 12.9045 8.82361V7.94126ZM12.9045 7.02361V6.74126L13.4733 6.17655C13.5444 6.10596 13.6155 6.10596 13.6866 6.17655C13.7577 6.24714 13.7577 6.35302 13.6866 6.38832L13.1178 6.95302C13.0467 7.05891 12.9401 7.05891 12.9045 7.02361ZM14.4331 8.54126H13.5799C13.5088 8.54126 13.4377 8.47067 13.4377 8.40008C13.4377 8.2942 13.5088 8.22361 13.5799 8.22361H14.4331C14.5042 8.22361 14.5753 8.2942 14.5753 8.40008C14.6109 8.43538 14.5398 8.54126 14.4331 8.54126ZM12.549 7.41185C12.6912 7.55302 12.8334 7.76479 12.9045 7.97655V8.85891C12.8334 9.07067 12.7268 9.24714 12.549 9.38832C11.9802 9.95302 11.0915 9.95302 10.5227 9.38832C10.3094 9.17655 10.1672 8.8942 10.1316 8.57655V8.22361C10.1672 7.90596 10.3094 7.65891 10.5227 7.41185C11.127 6.84714 12.0158 6.84714 12.549 7.41185ZM12.9045 6.74126C12.7979 6.84714 12.7979 6.91773 12.9045 6.98832C12.9045 6.98832 12.9045 6.98832 12.9045 7.02361V6.74126ZM10.1316 6.95302C10.1316 6.91773 10.1316 6.84714 10.1316 6.84714V6.95302ZM11.6603 5.47067V6.28243C11.6603 6.38832 11.5892 6.45891 11.5181 6.45891C11.4114 6.45891 11.3403 6.38832 11.3403 6.28243V5.47067C11.3403 5.36479 11.4114 5.32949 11.5181 5.32949C11.5892 5.2942 11.6603 5.36479 11.6603 5.47067ZM10.1316 8.57655C10.1316 8.43538 10.1316 8.32949 10.1316 8.22361V8.57655ZM10.1316 6.84714V6.95302C10.1316 6.95302 10.1316 6.98832 10.0961 6.98832C10.025 7.05891 9.95389 7.05891 9.84724 6.98832L9.27845 6.42361C9.20735 6.35302 9.20735 6.24714 9.27845 6.17655C9.34955 6.10596 9.4562 6.10596 9.49175 6.17655L10.0605 6.77655C10.1316 6.81185 10.1316 6.81185 10.1316 6.84714ZM8.56746 8.22361H9.3851C9.49175 8.22361 9.5273 8.2942 9.5273 8.36479C9.5273 8.47067 9.4562 8.50596 9.3851 8.50596H8.56746C8.46081 8.50596 8.42526 8.43538 8.42526 8.36479C8.38971 8.2942 8.46081 8.22361 8.56746 8.22361Z" fill="#000002"/>
<path d="M21.5785 18.1058V12.9529H16.6371V18.1058H14.042V11.2588H22.3961C22.8938 11.2588 23.3204 11.4353 23.6759 11.7882C24.0314 12.1411 24.2092 12.5647 24.2092 13.0588V18.1058H21.5785Z" fill="#000002"/>
<path d="M32.8122 18.1058V12.9529H27.9064V18.1058H25.3113V11.2588H33.6654C34.1631 11.2588 34.5897 11.4353 34.9452 11.7882C35.3007 12.1411 35.4784 12.5647 35.4784 13.0588V18.1058H32.8122Z" fill="#000002"/>
<path d="M46.1789 11.7882C46.5344 12.1411 46.7122 12.5647 46.7122 13.0588V16.3058C46.7122 16.8 46.5344 17.2235 46.1789 17.5764C45.8234 17.9294 45.3969 18.1058 44.8636 18.1058H38.3936C37.8959 18.1058 37.4338 17.9294 37.1138 17.5764C36.7583 17.2235 36.5806 16.8 36.5806 16.3058V13.0588C36.5806 12.5647 36.7583 12.1411 37.1138 11.7882C37.4693 11.4353 37.8959 11.2588 38.3936 11.2588H44.8636C45.3613 11.2588 45.8234 11.4353 46.1789 11.7882ZM44.0815 12.9529H39.1757V16.3764H44.0815V12.9529Z" fill="#000002"/>
<path d="M53.8932 18.1058H51.5469L47.4943 11.2588H50.4804L52.72 15.247L54.9597 11.2588H57.9814L53.8932 18.1058Z" fill="#000002"/>
<path d="M61.4652 18.1058H58.8701V13.0588C58.8701 12.5647 59.0479 12.1411 59.4034 11.7882C59.7589 11.4353 60.1855 11.2588 60.6831 11.2588H67.1532C67.6509 11.2588 68.0774 11.4353 68.4329 11.7882C68.7884 12.1411 68.9662 12.5294 68.9662 12.9882V18.1058H66.3711V15.9176H61.5008V18.1058H61.4652ZM66.3711 14.4353V12.9176H61.5008V14.4353H63.065H66.3711Z" fill="#000002"/>
<path d="M71.9878 15.3528C71.7034 15.3175 71.419 15.2469 71.1702 15.141C70.9213 15.0351 70.708 14.8939 70.5658 14.7528C70.3881 14.6116 70.2459 14.3998 70.1748 14.2234C70.0681 14.0116 70.0326 13.7998 70.0326 13.5528V13.0939C70.0326 12.5998 70.2103 12.1763 70.6014 11.8234C70.9924 11.4704 71.4546 11.2939 71.9878 11.2939H80.2709V12.9528H72.8766V13.8704H78.2445C78.5289 13.9057 78.8133 13.941 79.0622 14.0469C79.311 14.1175 79.5243 14.2234 79.7021 14.3645C79.8798 14.5057 80.022 14.6469 80.1287 14.8586C80.2353 15.0351 80.2709 15.2822 80.2709 15.5292V16.341C80.2709 16.8351 80.0576 17.2586 79.7021 17.6116C79.311 17.9645 78.8489 18.141 78.3156 18.141H70.0681V16.5528H77.4624V15.4234H71.9878V15.3528Z" fill="#000002"/>
<path d="M90.9713 11.7882C91.3268 12.1411 91.5046 12.5647 91.5046 13.0588V16.3058C91.5046 16.8 91.3268 17.2235 90.9713 17.5764C90.6158 17.9294 90.1892 18.1058 89.656 18.1058H83.186C82.6883 18.1058 82.2261 17.9294 81.9062 17.5764C81.5507 17.2235 81.3729 16.8 81.3729 16.3058V13.0588C81.3729 12.5647 81.5507 12.1411 81.9062 11.7882C82.2617 11.4353 82.6883 11.2588 83.186 11.2588H89.656C90.1892 11.2588 90.6158 11.4353 90.9713 11.7882ZM88.9094 12.9529H83.968V16.3764H88.8739V12.9529H88.9094Z" fill="#000002"/>
<path d="M95.2728 18.1058H92.6777V13.0588C92.6777 12.5647 92.8555 12.1411 93.211 11.7882C93.5665 11.4353 93.9931 11.2588 94.4908 11.2588H102.809V12.9529H95.3084V16.3764V18.1058H95.2728ZM96.8015 13.9058H102.276V15.3882H96.8015V13.9058Z" fill="#000002"/>
<path d="M114.114 12.9529H110.488V18.1058H107.609V12.9529H104.018V11.2588H114.114V12.9529Z" fill="#000002"/>
<path d="M10.3093 22.4821V20.4351H12.4067V20.7527H10.7004V21.2821H11.7313V21.5645H10.7004V22.1998H12.4423V22.4821H10.3093Z" fill="#000002"/>
<path d="M14.753 20.7527H13.2955V21.2821H14.6464C14.8241 21.2821 14.9663 21.3174 15.0374 21.388C15.1085 21.4586 15.1441 21.5645 15.1441 21.7762V22.0233C15.1441 22.1998 15.1085 22.3409 15.0374 22.4115C14.9663 22.4821 14.8241 22.5174 14.6464 22.5174H13.4021C13.1888 22.5174 13.0822 22.4821 13.0111 22.4115C12.9044 22.3409 12.8689 22.1998 12.8689 22.0233V21.9527L13.2244 21.8821V22.1998H14.7886V21.6351H13.4732C13.2955 21.6351 13.1533 21.5998 13.0822 21.5292C13.0111 21.4586 12.9755 21.3174 12.9755 21.1409V20.9292C12.9755 20.7527 13.0111 20.6115 13.0822 20.5409C13.1533 20.4704 13.2955 20.4351 13.4732 20.4351H14.6108C14.7886 20.4351 14.9308 20.4704 15.0019 20.5409C15.073 20.6115 15.1085 20.7174 15.1085 20.8939V20.9292L14.753 20.9998V20.7527Z" fill="#000002"/>
<path d="M15.8552 22.4821V20.4351H17.5972C17.7394 20.4351 17.8815 20.4704 17.9526 20.5409C18.0237 20.6115 18.0593 20.7174 18.0593 20.8586V21.2821C18.0593 21.4233 18.0237 21.5292 17.9526 21.5998C17.8815 21.6704 17.7749 21.7056 17.5972 21.7056H16.2463V22.5174H15.8552V22.4821ZM17.4194 20.7527H16.2463V21.388H17.4194C17.4905 21.388 17.5616 21.388 17.5972 21.3527C17.6327 21.3174 17.6327 21.2821 17.6327 21.2115V20.9292C17.6327 20.8586 17.5972 20.8233 17.5972 20.788C17.5616 20.7527 17.5261 20.7527 17.4194 20.7527Z" fill="#000002"/>
<path d="M18.5923 22.4821V20.4351H20.6897V20.7527H18.9833V21.2821H20.0143V21.5645H18.9833V22.1998H20.6897V22.4821H18.5923Z" fill="#000002"/>
<path d="M23.0006 20.7527H21.5431V22.1998H23.0006V21.7056L23.3917 21.7762V22.0233C23.3917 22.1998 23.3561 22.3409 23.285 22.4115C23.2139 22.4821 23.0717 22.5174 22.894 22.5174H21.6853C21.472 22.5174 21.3654 22.4821 21.2943 22.4115C21.2232 22.3409 21.1876 22.1998 21.1876 22.0233V20.9292C21.1876 20.7527 21.2232 20.6115 21.2943 20.5409C21.3654 20.4704 21.5076 20.4351 21.6853 20.4351H22.894C23.1073 20.4351 23.2139 20.4704 23.285 20.5409C23.3561 20.6115 23.3917 20.7527 23.3917 20.9292V21.1409L23.0006 21.2115V20.7527Z" fill="#000002"/>
<path d="M24.4225 20.4351H24.0315V22.4821H24.4225V20.4351Z" fill="#000002"/>
<path d="M24.8135 22.4821L26.0222 20.4351H26.3777L27.5863 22.4821H27.1597L26.8753 21.988H25.4534L25.2045 22.4821H24.8135ZM25.6311 21.7056H26.7331L26.1644 20.7174L25.6311 21.7056Z" fill="#000002"/>
<path d="M27.9775 22.4821V20.4351H28.3686V22.1645H30.0039V22.4821H27.9775Z" fill="#000002"/>
<path d="M30.7858 20.4351H30.3948V22.4821H30.7858V20.4351Z" fill="#000002"/>
<path d="M33.3455 20.7527H31.888V21.2821H33.2033C33.3811 21.2821 33.5233 21.3174 33.5944 21.388C33.6655 21.4586 33.701 21.5645 33.701 21.7762V22.0233C33.701 22.1998 33.6655 22.3409 33.5944 22.4115C33.5233 22.4821 33.3811 22.5174 33.2033 22.5174H31.9591C31.7458 22.5174 31.6392 22.4821 31.5681 22.4115C31.497 22.3409 31.4614 22.2351 31.4614 22.0233V21.9527L31.8169 21.8821V22.1998H33.3811V21.6351H32.0658C31.888 21.6351 31.7458 21.5998 31.6747 21.5292C31.6036 21.4586 31.5681 21.3174 31.5681 21.1409V20.9292C31.5681 20.7527 31.6036 20.6115 31.6747 20.5409C31.7458 20.4704 31.888 20.4351 32.0658 20.4351H33.2033C33.3811 20.4351 33.5233 20.4704 33.5944 20.5409C33.6655 20.6115 33.701 20.7174 33.701 20.8939V20.9292L33.3455 20.9998V20.7527V20.7527Z" fill="#000002"/>
<path d="M35.4073 20.7527V22.4821H35.0162V20.7527H34.0564V20.4351H36.4027V20.7527H35.4073Z" fill="#000002"/>
<path d="M36.2605 22.4821L37.4692 20.4351H37.8247L39.0334 22.4821H38.6068L38.3224 21.988H36.9004L36.6515 22.4821H36.2605ZM37.0781 21.7056H38.1802L37.6469 20.7174L37.0781 21.7056Z" fill="#000002"/>
<path d="M41.273 20.7527H39.8155V21.2821H41.1308C41.3086 21.2821 41.4508 21.3174 41.5219 21.388C41.593 21.4586 41.6285 21.5645 41.6285 21.7762V22.0233C41.6285 22.1998 41.593 22.3409 41.5219 22.4115C41.4508 22.4821 41.3086 22.5174 41.1308 22.5174H39.8866C39.6733 22.5174 39.5667 22.4821 39.4956 22.4115C39.4245 22.3409 39.3889 22.2351 39.3889 22.0233V21.9527L39.7444 21.8821V22.1998H41.3086V21.6351H39.9933C39.8155 21.6351 39.6733 21.5998 39.6022 21.5292C39.5311 21.4586 39.4956 21.3174 39.4956 21.1409V20.9292C39.4956 20.7527 39.5311 20.6115 39.6022 20.5409C39.6733 20.4704 39.8155 20.4351 39.9933 20.4351H41.1308C41.3086 20.4351 41.4508 20.4704 41.5219 20.5409C41.593 20.6115 41.6285 20.7174 41.6285 20.8939V20.9292L41.273 20.9998V20.7527Z" fill="#000002"/>
<path d="M44.1526 22.4821V20.4351H46.25V20.7527H44.5436V21.2821H45.5746V21.5645H44.5436V22.1998H46.2856V22.4821H44.1526Z" fill="#000002"/>
<path d="M47.1388 20.8586C47.1388 20.9292 47.1388 20.9645 47.1743 21.0351C47.1743 21.1056 47.1743 21.1409 47.1743 21.2115V22.4821H46.8188V20.4351H47.1032L48.6319 21.7762C48.6674 21.8115 48.703 21.8468 48.7741 21.9174C48.8096 21.9527 48.8452 22.0233 48.8807 22.0586C48.8807 21.988 48.8452 21.9174 48.8452 21.8821C48.8452 21.8115 48.8452 21.7409 48.8452 21.6704V20.4351H49.2007V22.4821H48.9163L47.3876 21.1409C47.3165 21.1056 47.281 21.0351 47.2454 20.9998C47.2099 20.9292 47.1743 20.8939 47.1388 20.8586Z" fill="#000002"/>
<path d="M53.1111 20.4352C53.3244 20.4352 53.4666 20.4352 53.6088 20.4705C53.751 20.5058 53.8576 20.5411 53.9287 20.5764C54.0709 20.647 54.1775 20.7881 54.2486 20.9293C54.3197 21.0705 54.3553 21.247 54.3553 21.4234C54.3553 21.7764 54.2486 22.0234 54.0353 22.1999C53.822 22.3764 53.5021 22.447 53.0755 22.447H51.8668V20.3999H53.1111V20.4352ZM53.0755 20.7528H52.329V22.1999H53.0755C53.3955 22.1999 53.6443 22.1293 53.7865 22.0234C53.9287 21.9175 53.9998 21.7411 53.9998 21.4587C53.9998 21.2117 53.9287 21.0352 53.7865 20.9293C53.6443 20.7881 53.431 20.7528 53.0755 20.7528Z" fill="#000002"/>
<path d="M55.1375 22.4821V20.4351H57.1993V20.7527H55.5285V21.2821H56.5239V21.5645H55.5285V22.1998H57.2349V22.4821H55.1375Z" fill="#000002"/>
<path d="M59.5455 20.7527H58.088V21.2821H59.4033C59.5811 21.2821 59.7233 21.3174 59.7944 21.388C59.8655 21.4586 59.901 21.5645 59.901 21.7762V22.0233C59.901 22.1998 59.8655 22.3409 59.7944 22.4115C59.7233 22.4821 59.5811 22.5174 59.4033 22.5174H58.1591C57.9813 22.5174 57.8391 22.4821 57.768 22.4115C57.6969 22.3409 57.6614 22.2351 57.6614 22.0233V21.9527L58.0169 21.8821V22.1998H59.5811V21.6351H58.2657C58.088 21.6351 57.9458 21.5998 57.8747 21.5292C57.8036 21.4586 57.768 21.3174 57.768 21.1409V20.9292C57.768 20.7527 57.8036 20.6115 57.8747 20.5409C57.9458 20.4704 58.088 20.4351 58.2657 20.4351H59.4033C59.5811 20.4351 59.7233 20.4704 59.7944 20.5409C59.8655 20.6115 59.901 20.7174 59.901 20.8939V20.9292L59.5455 20.9998V20.7527Z" fill="#000002"/>
<path d="M60.2921 22.4821L61.5008 20.4351H61.8563L63.065 22.4821H62.6384L62.354 21.988H60.932L60.6832 22.4821H60.2921ZM61.1098 21.7056H62.2118L61.643 20.7174L61.1098 21.7056Z" fill="#000002"/>
<path d="M63.4915 22.4821V20.4351H65.1623C65.3045 20.4351 65.4111 20.4704 65.4822 20.5409C65.5533 20.6115 65.5889 20.7174 65.5889 20.8586V21.2821C65.5889 21.4233 65.5533 21.5292 65.4822 21.5645C65.4111 21.6351 65.3045 21.6704 65.1623 21.6704H64.8779L65.8022 22.4821H65.2689L64.4513 21.6704H63.8825V22.4821H63.4915V22.4821ZM64.9845 20.7527H63.8825V21.4233H64.9845C65.0556 21.4233 65.1267 21.4233 65.1623 21.388C65.1978 21.3527 65.1978 21.3174 65.1978 21.2115V20.9645C65.1978 20.8939 65.1978 20.8233 65.1623 20.788C65.1267 20.7527 65.0556 20.7527 64.9845 20.7527Z" fill="#000002"/>
<path d="M66.2644 22.4821V20.4351H67.9352C68.0774 20.4351 68.1841 20.4704 68.2552 20.5409C68.3263 20.6115 68.3618 20.7174 68.3618 20.8586V21.2821C68.3618 21.4233 68.3263 21.5292 68.2552 21.5645C68.1841 21.6351 68.0774 21.6704 67.9352 21.6704H67.6508L68.5751 22.4821H68.0419L67.2242 21.6704H66.6555V22.4821H66.2644V22.4821ZM67.7575 20.7527H66.6555V21.4233H67.7575C67.8286 21.4233 67.8997 21.4233 67.9352 21.388C67.9708 21.3527 67.9708 21.3174 67.9708 21.2115V20.9645C67.9708 20.8939 67.9708 20.8233 67.9352 20.788C67.8997 20.7527 67.8286 20.7527 67.7575 20.7527Z" fill="#000002"/>
<path d="M69.0017 20.9292C69.0017 20.7527 69.0373 20.6115 69.1084 20.5409C69.1795 20.4704 69.3217 20.4351 69.4994 20.4351H70.9925C71.1702 20.4351 71.3124 20.4704 71.3835 20.5409C71.4546 20.6115 71.4902 20.7527 71.4902 20.9292V22.0233C71.4902 22.1998 71.4546 22.3409 71.3835 22.4115C71.3124 22.4821 71.1702 22.5174 70.9925 22.5174H69.4994C69.2861 22.5174 69.1795 22.4821 69.1084 22.4115C69.0373 22.3409 69.0017 22.2351 69.0017 22.0233V20.9292ZM69.3928 22.1645H71.1347V20.7174H69.3928V22.1645Z" fill="#000002"/>
<path d="M72.2012 22.4821V20.4351H72.5922V22.1645H74.1919V22.4821H72.2012Z" fill="#000002"/>
<path d="M74.6185 22.4821V20.4351H75.0096V22.1645H76.6093V22.4821H74.6185Z" fill="#000002"/>
<path d="M76.9647 20.9292C76.9647 20.7527 77.0003 20.6115 77.0714 20.5409C77.1425 20.4704 77.2847 20.4351 77.4624 20.4351H78.9555C79.1332 20.4351 79.2754 20.4704 79.3465 20.5409C79.4176 20.6115 79.4532 20.7527 79.4532 20.9292V22.0233C79.4532 22.1998 79.4176 22.3409 79.3465 22.4115C79.2754 22.4821 79.1332 22.5174 78.9555 22.5174H77.4624C77.2491 22.5174 77.1425 22.4821 77.0714 22.4115C77.0003 22.3409 76.9647 22.2351 76.9647 22.0233V20.9292ZM77.3558 22.1645H79.0977V20.7174H77.3558V22.1645Z" fill="#000002"/>
<path d="M83.3637 20.4352C83.577 20.4352 83.7192 20.4352 83.8614 20.4705C84.0036 20.5058 84.1102 20.5411 84.1813 20.5764C84.3235 20.647 84.4302 20.7881 84.5013 20.9293C84.5724 21.0705 84.6079 21.247 84.6079 21.4234C84.6079 21.7764 84.5013 22.0234 84.288 22.1999C84.0747 22.3764 83.7547 22.447 83.3281 22.447H82.1906V20.3999H83.3637V20.4352ZM83.3281 20.7528H82.5816V22.1999H83.3281C83.6481 22.1999 83.8969 22.1293 84.0391 22.0234C84.1813 21.9175 84.2524 21.7411 84.2524 21.4587C84.2524 21.2117 84.1813 21.0352 84.0391 20.9293C83.8969 20.7881 83.6481 20.7528 83.3281 20.7528Z" fill="#000002"/>
<path d="M85.3545 22.4821V20.4351H87.4164V20.7527H85.7455V21.2821H86.7765V21.5645H85.7455V22.1998H87.4519V22.4821H85.3545Z" fill="#000002"/>
<path d="M92.1444 20.3294H90.3669V21.0352H91.9666C92.1799 21.0352 92.3577 21.0705 92.4288 21.1411C92.4999 21.2117 92.5354 21.3882 92.5354 21.6V21.8823C92.5354 22.1294 92.4999 22.2705 92.4288 22.3411C92.3577 22.4117 92.1799 22.447 91.9666 22.447H90.5091C90.2958 22.447 90.1181 22.4117 90.047 22.3058C89.9759 22.2352 89.9403 22.0588 89.9403 21.847V21.7764L90.3314 21.6705V22.0588H92.2155V21.3176H90.6158C90.4025 21.3176 90.2247 21.2823 90.1536 21.1764C90.0825 21.1058 90.047 20.9294 90.047 20.7176V20.5764C90.047 20.3294 90.0825 20.1882 90.1536 20.1176C90.2247 20.047 90.4025 20.0117 90.6158 20.0117H91.9666C92.1799 20.0117 92.3577 20.047 92.4288 20.1176C92.4999 20.1882 92.571 20.3294 92.571 20.5411V20.5764L92.2155 20.6823V20.3294H92.1444Z" fill="#000002"/>
<path d="M93.3531 20.9292C93.3531 20.7527 93.3887 20.6115 93.4598 20.5409C93.5309 20.4704 93.6731 20.4351 93.8508 20.4351H95.3439C95.5572 20.4351 95.6639 20.4704 95.735 20.5409C95.8061 20.6115 95.8416 20.7527 95.8416 20.9292V22.0233C95.8416 22.1998 95.8061 22.3409 95.735 22.4115C95.6639 22.4821 95.5217 22.5174 95.3439 22.5174H93.8508C93.6375 22.5174 93.5309 22.4821 93.4598 22.4115C93.3887 22.3409 93.3531 22.2351 93.3531 22.0233V20.9292ZM93.7442 22.1645H95.4861V20.7174H93.7442V22.1645Z" fill="#000002"/>
<path d="M96.5881 22.4821V20.4351H98.65V20.7527H96.9792V21.388H97.9035V21.6704H96.9792V22.4821H96.5881Z" fill="#000002"/>
<path d="M100.179 20.7527V22.4821H99.7876V20.7527H98.7922V20.4351H101.138V20.7527H100.179Z" fill="#000002"/>
<path d="M101.956 22.4821L101.174 20.4351H101.565L102.134 22.0233L102.738 20.4351H103.023L103.591 22.0233L104.16 20.4351H104.516L103.734 22.4821H103.449L102.88 20.9645L102.241 22.4821H101.956Z" fill="#000002"/>
<path d="M104.48 22.4821L105.689 20.4351H106.044L107.253 22.4821H106.826L106.542 21.988H105.12L104.871 22.4821H104.48ZM105.333 21.7056H106.435L105.902 20.7174L105.333 21.7056Z" fill="#000002"/>
<path d="M107.68 22.4821V20.4351H109.35C109.493 20.4351 109.599 20.4704 109.67 20.5409C109.741 20.6115 109.777 20.7174 109.777 20.8586V21.2821C109.777 21.4233 109.741 21.5292 109.67 21.5645C109.599 21.6351 109.493 21.6704 109.35 21.6704H109.066L109.99 22.4821H109.457L108.639 21.6704H108.071V22.4821H107.68V22.4821ZM109.173 20.7527H108.071V21.4233H109.173C109.244 21.4233 109.315 21.4233 109.35 21.388C109.386 21.3527 109.386 21.3174 109.386 21.2115V20.9645C109.386 20.8939 109.386 20.8233 109.35 20.788C109.315 20.7527 109.244 20.7527 109.173 20.7527Z" fill="#000002"/>
<path d="M110.452 22.4821V20.4351H112.55V20.7527H110.843V21.2821H111.874V21.5645H110.843V22.1998H112.585V22.4821H110.452Z" fill="#000002"/>
<path d="M113.652 21.9531C113.723 21.9531 113.759 21.9531 113.794 21.9884C113.794 22.0237 113.83 22.0237 113.83 22.0943V22.3767C113.83 22.4472 113.83 22.4472 113.794 22.4825C113.794 22.4825 113.723 22.5178 113.652 22.5178H113.368C113.332 22.5178 113.296 22.5178 113.296 22.4825C113.296 22.4825 113.261 22.4472 113.261 22.3767V22.0943C113.261 22.0237 113.261 22.0237 113.296 21.9884C113.296 21.9884 113.368 21.9531 113.403 21.9531H113.652Z" fill="#000002"/>
<path d="M9.42062 22.4118C7.03881 22.0235 4.94138 20.8941 3.30611 19.2706C1.24423 17.2235 0 14.4 0 11.2941C0 8.18824 1.27978 5.36471 3.34166 3.31765C5.40353 1.27059 8.24749 0 11.3758 0C14.5042 0 17.3837 1.27059 19.4456 3.31765C21.2942 5.15294 22.5028 7.62353 22.7517 10.3765H20.121C19.9077 8.32941 18.9834 6.52941 17.597 5.15294C15.9617 3.56471 13.7932 2.57647 11.3758 2.57647C8.95848 2.57647 6.78996 3.56471 5.19023 5.11765C3.5905 6.70588 2.63067 8.89412 2.63067 11.2588C2.63067 13.6588 3.62605 15.8118 5.19023 17.4C6.32782 18.5294 7.8209 19.3412 9.42062 19.7294V22.4118Z" fill="#000002"/>
<path d="M12.7979 11.3291H10.3805V18.0703H12.7979V11.3291Z" fill="#000002"/>
</svg>
