<svg width="38" height="37" viewBox="0 0 38 37" fill="none" xmlns="http://www.w3.org/2000/svg">
<path d="M0 17.0238C0 7.62181 7.62181 -7.62939e-06 17.0238 -7.62939e-06V19.4294C17.0238 28.8314 9.40199 36.4532 0 36.4532V17.0238Z" fill="#5448D9"/>
<path d="M19.4937 8.55809C19.4937 3.83155 23.3253 -6.86646e-05 28.0518 -6.86646e-05H29.4367C34.1632 -6.86646e-05 37.9949 3.83155 37.9949 8.55809C37.9949 13.2846 34.1632 17.1162 29.4367 17.1162H28.0518C23.3253 17.1162 19.4937 13.2846 19.4937 8.55809Z" fill="#E3F3FD"/>
<path d="M19.4937 27.8951C19.4937 23.1685 23.3254 19.3369 28.0519 19.3369H29.4368C34.1633 19.3369 37.9949 23.1685 37.9949 27.8951C37.9949 32.6216 34.1633 36.4532 29.4368 36.4532H28.0519C23.3254 36.4532 19.4937 32.6216 19.4937 27.8951Z" fill="#A32DFF"/>
</svg>
